<svg xmlns="http://www.w3.org/2000/svg" viewBox="0 0 512 512" width="512" height="512">
  <defs>
    <linearGradient id="g" x1="0" y1="0" x2="1" y2="1">
      <stop offset="0" stop-color="#2f7ce0"/>
      <stop offset="1" stop-color="#6f5cf0"/>
    </linearGradient>
  </defs>
  <rect width="512" height="512" rx="112" fill="url(#g)"/>
  <g fill="#ffffff">
    <path d="M150 132c-14 0-26 12-26 26v196c0 14 12 26 26 26h84c12 0 22 5 22 16 0-11 10-16 22-16h84c14 0 26-12 26-26V158c0-14-12-26-26-26h-84c-12 0-22 6-22 16v180" fill="none" stroke="#ffffff" stroke-width="22" stroke-linejoin="round" stroke-linecap="round"/>
  </g>
  <text x="256" y="330" font-family="Arial, sans-serif" font-size="150" font-weight="800" fill="#ffffff" text-anchor="middle">A</text>
</svg>
